PathFileType	4	(X/Y/Z)	C:/Users/beibeiliu/ov580/test_trc/User1\sequence.2_training_dense_right.trc
DataRate	CameraRate	NumFrames	NumMarkers	Units	OrigDataRate	OrigDataStartFrame	OrigNumFrames
120	120	21	19	mm	120	88	145
Frame#	Time	ThumbCMC			ThumbMCP			ThumbIP			ThumbTip			IndexMCP			IndexPIP			IndexTip			MiddleMCP			MiddlePIP			MiddleTip			RingMCP			RingPIP			RingTip			PinkyMCP			PinkyPIP			PinkyTip			BackHand1			BackHand2			BackHand3	
		X0	Y0	Z0	X1	Y1	Z1	X2	Y2	Z2	X3	Y3	Z3	X4	Y4	Z4	X5	Y5	Z5	X6	Y6	Z6	X7	Y7	Z7	X8	Y8	Z8	X9	Y9	Z9	X10	Y10	Z10	X11	Y11	Z11	X12	Y12	Z12	X13	Y13	Z13	X14	Y14	Z14	X15	Y15	Z15	X16	Y16	Z16	X17	Y17	Z17	X18	Y18	Z18	
87	0.725	134.446	84.314	98.726	115.894	78.5728	62.9763	111.484	73.3448	33.6358	115.647	59.9544	9.65347	166.676	100.602	19.2762	153.694	85.7764	-3.60571	128.441	63.6208	-4.31671	185.95	87.9539	12.4915	166.544	73.1599	-10.0073	141.208	46.7802	0.595639	200.623	68.9385	17.6028	183.524	53.2262	-6.89256	156.881	37.6003	-1.19597	209.282	42.6267	34.3307	197.541	37.7107	9.95836	168.327	29.7886	-0.164856	204.036	67.6874	83.8465	198.287	60.2418	113.84	177.898	88.4119	100.539	
88	0.733333	127.489	84.548	101.648	100.219	75.869	71.391	96.4873	65.2264	45.2887	96.4422	47.9592	23.61	148.641	82.8416	16.9841	128.55	62.7181	-3.16578	100.772	46.84	7.32682	165.728	64.302	8.65735	141.527	48.5942	-7.37608	111.049	32.1522	13.3323	174.082	50.1327	13.5628	151.104	32.3826	-3.55014	126.202	16.1792	12.9387	184.73	29.685	33.9279	166.589	17.5956	11.8986	133.703	14.1115	14.85	188.535	59.8336	74.2063	190.277	58.9111	108.209	170.805	86.4717	92.9459	
89	0.741667	134.562	90.9882	94.8113	102.156	88.0182	76.3487	87.1545	77.1499	51.1095	78.0689	58.9634	38.3162	134.729	69.7696	15.3743	109.158	58.7464	1.84659	78.3495	46.9218	20.0319	143.55	45.9748	10.9446	109.425	37.9986	0.506042	83.5327	37.0052	29.953	148.466	28.8959	15.2543	120.955	16.8429	5.60872	93.9562	18.3216	24.7511	155.305	8.33098	36.8391	133.421	6.38226	20.4964	102.729	10.708	27.1827	178.575	39.5153	73.5725	185.66	42.1418	103.474	172.922	77.4263	82.2133	
90	0.75	149.747	94.7698	90.8989	116.901	102.488	68.9768	96.9213	94.1824	46.5985	77.0131	80.6656	35.9701	133.532	65.7696	9.93504	104.11	58.5138	3.54956	76.3233	66.691	19.7238	134.553	37.8396	11.6826	99.1749	42.131	2.17194	75.4764	51.7071	29.1578	133.516	17.7695	20.5877	98.3139	21.1982	10.3055	77.4199	31.7943	32.9459	133.397	3.53367	43.3327	108.365	2.54027	26.6306	86.1512	21.1713	31.965	167.476	28.3697	69.074	179.807	34.0904	105.131	178.553	64.7616	76.5275	
91	0.758333	167.541	89.0176	86.2424	141.735	107.111	59.8006	123.365	103.864	42.3681	101.892	98.7418	24.402	151.742	59.833	7.81791	121.417	67.5461	-5.87468	97.1986	82.0012	9.40502	144.991	36.5593	7.24905	111.799	49.5408	-5.79124	91.6727	68.0674	18.6281	138.376	18.3816	16.6027	105.705	26.5395	2.95479	89.5729	46.6028	18.6344	130.031	1.94518	43.801	109.541	9.35126	21.4504	92.4437	31.4819	19.8617	167.497	20.5373	70.6015	176.225	23.8691	106.388	186.616	54.26	80.6921	
92	0.766667	181.245	88.302	86.1672	161.174	101.532	59.3192	149.035	105.696	33.7728	132.954	97.6253	14.6951	181.096	58.785	8.75685	155.044	66.7475	-12.3046	128.82	83.8534	-2.4176	172.148	34.0525	7.18154	146.648	50.38	-13.7573	120.349	67.5813	4.32338	161.052	18.1377	16.2397	138.38	24.9047	-5.80941	112.963	50.3574	7.06114	144.851	3.09333	37.1557	135.026	8.66283	15.1697	117.355	35.4383	4.76081	175.495	18.3178	76.3746	176.545	21.2496	112.678	195.064	49.8093	87.4349	
93	0.775	189.879	86.8876	90.9495	174.206	102.088	59.178	169.92	100.009	28.0768	157.221	98.5291	5.65171	207.683	55.8351	16.3707	189.97	62.9228	-10.1924	157.972	80.1033	-7.7305	201.766	33.7795	14.2053	176.359	44.9548	-14.3868	150.525	68.4497	-1.52709	187.496	15.8623	18.761	171.859	23.4907	-7.09449	149.284	45.8363	-5.93392	168.017	3.98712	38.0567	162.348	5.87595	11.1622	148.269	30.8745	-3.70121	187.452	15.8003	79.4956	182.784	25.5724	116.948	208.146	47.8263	93.0527	
94	0.783333	189.633	88.4837	97.2217	178.888	101.827	62.5314	180.482	102.003	29.6212	173.906	92.6722	4.3762	225.322	61.0522	23.3992	209.313	66.9333	-5.71282	183.238	83.3209	-10.0794	225.059	39.2535	19.1599	205.473	49.6833	-11.1641	172.63	67.7558	-3.9593	214.291	19.0607	23.1316	201.108	25.4475	-5.55122	173.634	42.3059	-9.08556	193.43	8.80612	41.341	194.137	10.3216	12.386	178.348	31.8703	-8.12713	201.768	20.0821	82.9507	192.117	23.018	113.611	215.118	54.9579	103.892	
95	0.791667	183.276	93.3768	97.7097	171.63	104.297	63.404	175.691	103.709	30.0496	173.96	92.774	9.22536	231.476	81.2364	31.0235	216.416	80.5189	-0.73224	186.589	87.7317	-7.41352	235.816	53.3835	26.1118	220.728	62.1572	-7.5308	182.995	67.5818	-6.23049	231.246	35.5208	29.0686	220.712	39.3236	-2.93343	189.221	47.445	-9.06318	214.845	16.2956	40.6914	213.923	18.2779	11.2457	197.968	33.5058	-6.63874	216.555	31.0527	87.1741	202.645	27.6443	116.599	216.506	61.7684	103.343	
96	0.8	166.765	93.2841	97.9979	155.471	95.44	62.2221	154.262	97.1663	34.9881	155.386	87.7345	8.69727	214.777	97.6067	29.4577	202.293	94.5086	0.690063	171.161	82.407	-7.06812	228.018	75.8377	21.0381	210.419	71.413	-8.09462	174.882	68.5534	-7.75559	229.661	49.1917	28.5146	214.662	51.0922	-5.61637	183.083	53.1221	-8.5937	221.306	22.9622	40.9014	217.74	31.3174	11.5109	200.912	37.097	-8.69957	216.706	44.3984	88.1734	206.307	39.0342	116.677	205.74	73.8539	107.33	
97	0.808333	144.094	84.1699	97.0664	131.397	81.6937	64.2775	125.354	83.2172	35.3274	131.437	71.5503	9.97987	187.207	98.733	26.4429	172.566	90.1505	-1.55127	145.467	71.7392	-6.11279	204.462	84.595	17.2246	186.198	76.7017	-9.54893	151.958	57.3293	-5.30034	214.646	60.8383	21.2189	201.313	53.6668	-6.24746	170.192	41.9227	-8.11478	213.978	35.4007	37.5193	207.991	31.8091	7.33061	183.349	33.8763	-10.272	209.558	52.198	83.0483	202.485	45.9218	115.032	188.572	80.3205	102.6	
98	0.816667	131.957	78.5736	101.74	114.191	74.9608	68.8801	113.718	73.3187	39.4755	113.402	64.842	11.1209	169.507	94.7113	24.9121	155.01	82.6379	-1.93231	124.816	66.4126	-5.12642	188.425	79.9892	15.3942	165.48	69.0007	-11.3962	136.031	52.9368	-3.73549	199.082	59.1655	22.0514	183.43	52.4138	-6.93517	154.668	38.6314	-6.38665	203.066	31.1704	36.2585	190.371	35.1971	6.56844	165.213	32.1631	-5.48985	196.923	54.6128	83.2653	194.135	44.3507	115.944	176.621	81.2452	99.3736	
99	0.825	139.743	90.9512	100.712	118.247	88.5993	70.7885	112.244	87.3272	39.8059	106.15	76.9505	14.5177	166.458	92.4314	20.8489	148.153	83.8823	-2.71535	114.148	71.1236	-0.834923	180.096	73.5939	10.9645	155.701	65.479	-11.0871	120.317	57.9658	0.939106	185.82	49.1755	16.2494	164.011	42.2467	-8.94263	133.981	36.1929	-2.46368	185.552	22.884	31.4478	171.287	22.7256	6.00817	143.044	32.0528	-3.77005	191.841	46.2618	76.2748	191.58	39.6222	111.918	180.504	78.325	96.1943	
100	0.833333	159.941	96.2542	95.9092	135.465	105.913	67.4999	123.66	103.094	41.4966	114.624	89.4249	18.3894	171.536	74.8804	14.2402	145.665	75.5699	-7.52924	115.92	78.6294	-1.03698	173.699	52.8269	7.8737	144.353	55.4467	-12.549	113.552	65.4019	2.64496	171.69	31.0811	16.5128	146.665	35.2878	-8.79231	114.571	44.976	2.89913	161.703	13.3394	36.5874	149.879	17.3506	11.0838	122.691	31.244	1.28686	183.403	35.6274	75.416	185.101	30.6563	108.449	192.12	67.0634	89.0306	
101	0.841667	180.506	92.3121	84.9323	156.916	101.838	59.247	143.102	104.773	31.6042	126.053	100.724	15.8629	176.083	61.0773	6.59884	151.089	66.3675	-10.5953	121.476	83.9663	-1.81298	167.444	36.4331	4.4312	142.855	48.4704	-13.2192	114.789	73.0651	3.67681	160.599	20.6979	15.9968	135.681	28.4783	-6.1521	111.863	50.2048	2.24499	145.758	9.67642	41.5702	131.219	13.018	15.2718	113.414	34.1552	2.74144	175.887	22.7079	78.0129	180.67	26.0985	109.375	196.846	49.8464	83.6688	
102	0.85	189.878	82.9291	84.2582	169.837	99.5931	56.676	156.022	101.251	28.0847	139.131	96.7855	14.0773	185.067	49.6655	8.39181	160.534	56.5923	-12.1143	135.157	79.3744	-5.93417	173.623	27.3514	6.22464	146.962	42.0531	-15.1612	122.794	69.6128	2.44239	161.323	12.2766	18.9099	140.681	23.0459	-6.82947	119.06	47.5718	-1.04718	146.04	4.26075	38.492	132.515	8.06126	15.6147	117.442	29.673	1.85676	179.861	16.0885	72.775	183.202	18.7897	110.704	202.033	41.0499	83.827	
103	0.858333	196.105	83.4452	85.608	176.78	94.3184	55.4989	166.327	93.6714	28.3712	150.665	88.8206	4.35258	194.924	43.174	7.54698	174.025	54.246	-15.4144	150.482	77.1695	-11.4494	184.671	21.3018	7.356	163.64	37.8964	-17.6126	140.308	63.9784	-6.31225	174.057	8.08636	15.4497	154.193	16.1153	-8.1781	131.77	39.8967	-4.83298	154.516	-2.18637	36.9455	146.131	1.74102	13.1557	132.019	22.7971	-4.43709	185.715	11.1309	75.4375	188.673	17.3448	110.466	210.948	42.106	85.9611	
104	0.866667	195.486	77.5509	87.243	180.888	92.6808	51.9993	171.973	87.1342	25.383	158.872	82.5321	5.27769	208.899	43.478	9.77142	186.147	49.6887	-16.6394	158.173	67.1752	-12.5919	199.994	20.6367	5.121	175.783	29.4281	-18.075	148.338	53.8652	-9.03957	185.373	2.3539	17.059	168.351	12.9497	-11.4774	141.6	32.1461	-6.42606	166.444	-6.20972	39.0711	157.057	-4.88962	11.7191	144.296	18.865	-8.81299	193.364	9.84528	80.1784	190.515	15.2627	112.995	210.873	38.475	89.412	
105	0.875	196.736	78.9458	85.5037	180.221	91.7211	51.5439	172.698	88.229	21.8697	160.958	79.2272	1.06816	211.323	43.1193	8.77764	191.438	47.9715	-14.9442	164.223	64.4382	-15.188	204.169	19.5803	7.2805	184.28	26.7363	-17.7084	153.91	51.9063	-10.8029	193.214	3.60217	15.3263	175.895	11.8809	-11.819	151.666	29.3542	-10.8861	172.443	-6.94233	38.0952	164.604	-3.70013	9.01887	151.903	13.447	-8.78864	196.171	10.4664	77.4244	194.641	17.3114	111.778	214.43	42.3739	87.0249	
106	0.883333	196.353	83.5425	85.8985	179.717	93.1314	52.586	172.956	87.7642	22.4762	160.559	80.4339	3.99796	210.159	42.0948	10.6153	191.97	44.9244	-12.7437	162.253	64.0709	-14.9611	204.187	18.4521	7.33724	183.233	27.8887	-19.033	152.31	52.7787	-10.029	195.848	3.68831	16.9879	179.524	9.2439	-10.1484	155.157	28.9943	-10.9992	172.907	-7.6242	40.0604	164.259	-6.66384	9.0829	152.116	8.67188	-8.69191	196.466	6.96707	78.5577	192.498	14.1094	113.35	215.04	41.5247	87.2762	
107	0.891667	194.122	83.1422	86.8352	177.831	88.1596	52.7718	172.077	85.7939	22.6643	159.919	80.2407	0.985217	213.262	44.5964	10.9965	193.412	49.926	-16.2952	161.848	67.2207	-14.7579	206.701	20.8325	5.75606	185.595	30.1594	-18.6501	153.829	47.6226	-11.3987	196.187	4.81951	17.9477	175.81	8.18052	-11.3382	154.374	29.0775	-10.0018	174.556	-8.4689	36.6305	169.451	-8.10997	11.4863	155.845	12.1258	-10.0765	195.942	8.48613	78.5354	195.391	16.1842	109.915	214.173	42.9483	89.6645	
